<svg width="14" height="16" viewBox="0 0 14 16" fill="none" xmlns="http://www.w3.org/2000/svg">
<path fill-rule="evenodd" clip-rule="evenodd" d="M14 16H12.172L7.707 11.535C7.51947 11.3475 7.26516 11.2422 7 11.2422C6.73484 11.2422 6.48053 11.3475 6.293 11.535L1.828 16H0V3C0 2.20435 0.316071 1.44129 0.87868 0.87868C1.44129 0.316071 2.20435 0 3 0H11C11.7956 0 12.5587 0.316071 13.1213 0.87868C13.6839 1.44129 14 2.20435 14 3V16ZM12 3C12 2.73478 11.8946 2.48043 11.7071 2.29289C11.5196 2.10536 11.2652 2 11 2H3C2.73478 2 2.48043 2.10536 2.29289 2.29289C2.10536 2.48043 2 2.73478 2 3V13L4.879 10.121C5.44158 9.55859 6.20451 9.24264 7 9.24264C7.79549 9.24264 8.55842 9.55859 9.121 10.121L12 13V3Z" fill="#CD2027"/>
</svg>
