<svg width="41" height="41" viewBox="0 0 41 41" fill="none" xmlns="http://www.w3.org/2000/svg">
<path fill-rule="evenodd" clip-rule="evenodd" d="M8.67291 1.38413C7.69529 0.473165 6.40224 -0.0227697 5.06618 0.000803465C3.73013 0.0243766 2.45538 0.565617 1.5105 1.5105C0.565617 2.45538 0.0243766 3.73013 0.000803465 5.06618C-0.0227697 6.40224 0.473165 7.69529 1.38413 8.67291L13.2112 20.5L1.38413 32.3271C0.473165 33.3047 -0.0227697 34.5978 0.000803465 35.9338C0.0243766 37.2699 0.565617 38.5446 1.5105 39.4895C2.45538 40.4344 3.73013 40.9756 5.06618 40.9992C6.40224 41.0228 7.69529 40.5268 8.67291 39.6159L20.5 27.7888L32.3271 39.6159C33.3047 40.5268 34.5978 41.0228 35.9338 40.9992C37.2699 40.9756 38.5446 40.4344 39.4895 39.4895C40.4344 38.5446 40.9756 37.2699 40.9992 35.9338C41.0228 34.5978 40.5268 33.3047 39.6159 32.3271L27.7888 20.5L39.6159 8.67291C40.5268 7.69529 41.0228 6.40224 40.9992 5.06618C40.9756 3.73013 40.4344 2.45538 39.4895 1.5105C38.5446 0.565617 37.2699 0.0243766 35.9338 0.000803465C34.5978 -0.0227697 33.3047 0.473165 32.3271 1.38413L20.5 13.2112L8.67291 1.38413Z" fill="#565656"/>
</svg>
